{"title":"The.Dead.Room.2015.WEBRip.480p.x264.AAC-VYTO [P2PDL]","uid":14281549,"size":294425506,"categoryP":"video","categoryS":"movies","magnet":"?xt=urn:btih:8b332f66214e2f1ae9ed0ea17e3a3eb8147e4aaa&amp;dn=The.Dead.Room.2015.WEBRip.480p.x264.AAC-VYTO+%5BP2PDL%5D&amp;tr=udp%3A%2F%2Ftracker.leechers-paradise.org%3A6969&amp;tr=udp%3A%2F%2Fzer0day.ch%3A1337&amp;tr=udp%3A%2F%2Fopen.demonii.com%3A1337&amp;tr=udp%3A%2F%2Ftracker.coppersurfer.tk%3A6969&amp;tr=udp%3A%2F%2Fexodus.desync.com%3A6969","seeders":0,"leechers":1,"uploader":"VYTOP2PDL","files":7,"time":1460364284,"description":"____    ____ ____    ____ .___________.  ______   \r\n     /   /      /   / |           | /  __    \r\n    /   /      /   /  `---|  |----`|  |  |  | \r\n        /     _    _/       |  |     |  |  |  | \r\n       /        |  |         |  |     |  `--'  | \r\n    __/         |__|         |__|      ______/  \r\n                                                  \r\nPresenting Small Encodes with quality for years!\r\n                                                                                                   \r\n                                                                                                   \r\n\r\n\r\nThe.Dead.Room.2015.WEBRip.480p.x264.AAC-VYTO\r\n\r\n\r\nGenre: Horror, Thriller  \nhttp://www.imdb.com/title/tt3952108/\r\n\r\n\r\nFormat                                   : MPEG-4\r\nFile size                                : 275 MiB\r\nDuration                                 : 1h 18mn\r\nOverall bit rate                         : 491 Kbps\r\n\r\nVideo\r\nFormat                                   : AVC\r\nBit rate                                 : 458 Kbps\r\nWidth                                    : 720 pixels\r\nHeight                                   : 304 pixels\r\nDisplay aspect ratio                     : 2.35:1\r\nFrame rate mode                          : Constant\r\nFrame rate                               : 23.976 fps\r\nBit depth                                : 8 bits\r\nStream size                              : 255 MiB (93%)\r\nWriting library                          : x264 \r\n\r\nAudio\r\nFormat                                   : AAC\r\nBit rate mode                            : Variable\r\nBit rate                                 : 32.0 Kbps\r\nChannel(s)                               : 2 channels\r\nChannel positions                        : Front: L R \r\nSampling rate                            : 48.0 KHz\r\nStream size                              : 17.9 MiB (7%)\r\nLanguage                                 : English\r\n\r\nSubtitle                                 : Yes (English)\r\n\r\nScreen Shot: (Click link to view)\r\n \nhttps://ititli.com/Xs2 \nhttps://ititli.com/Xs6 \nhttps://ititli.com/Xs8 \nhttps://ititli.com/Xse \nhttps://ititli.com/Xsj \nhttps://ititli.com/Xsk \nhttps://ititli.com/Xso \nhttps://ititli.com/XsG \nhttps://ititli.com/XsH\r\n\r\n----------------------------------------------------------------------------------------------------\r\n\r\n\r\nEncoder Notes: Looking For Early Access To Anything You Can Provide WEBDL, DVDScr, DVDR, BluRay,\r\nDirect Audio, Music Releases and Seedboxes. If You Got anything to offer please contact us.\r\n\r\nSupport us by donating BC - 1FgwdzPsd1y25Gea8wP1qni35uGCtmkRCD\r\n\r\nFind us and join us!","torrent":{"xt":"urn:btih:8b332f66214e2f1ae9ed0ea17e3a3eb8147e4aaa","amp;dn":"The.Dead.Room.2015.WEBRip.480p.x264.AAC-VYTO+%5BP2PDL%5D","amp;tr":["udp%3A%2F%2Ftracker.leechers-paradise.org%3A6969","udp%3A%2F%2Fzer0day.ch%3A1337","udp%3A%2F%2Fopen.demonii.com%3A1337","udp%3A%2F%2Ftracker.coppersurfer.tk%3A6969","udp%3A%2F%2Fexodus.desync.com%3A6969"],"infoHash":"8b332f66214e2f1ae9ed0ea17e3a3eb8147e4aaa","infoHashBuffer":{"type":"Buffer","data":[139,51,47,102,33,78,47,26,233,237,14,161,126,58,62,184,20,126,74,170]},"announce":[],"urlList":[]}}